<svg width="249" height="96" viewBox="0 0 249 96" fill="none" xmlns="http://www.w3.org/2000/svg">
<g clip-path="url(#clip0_360_2375)">
<path d="M20.818 59.143C18.333 59.612 16.247 59.885 14.567 59.948C14.364 59.143 13.986 58.471 13.433 57.932C12.88 57.393 12.033 57.127 10.885 57.127C9.107 57.127 7.322 57.491 5.544 58.212C3.766 58.933 2.086 59.801 0.504 60.809L3.178 66.199C2.17 71.778 1.386 76.251 0.833 79.632C0.28 83.013 0 85.54 0 87.22C0 89.838 0.462 91.798 1.386 93.093C2.31 94.388 3.899 95.0319 6.146 95.0319C8.393 95.0319 10.381 94.276 12.397 92.764C11.893 91.959 11.515 90.965 11.263 89.789C11.011 88.613 10.885 87.171 10.885 85.456C10.885 84.518 11.067 82.985 11.438 80.871C12.012 81.004 12.579 81.116 13.153 81.2C13.727 81.284 14.343 81.326 15.015 81.326C16.492 81.326 17.78 80.955 18.872 80.22C19.964 79.478 20.51 78.302 20.51 76.692C20.51 76.426 20.503 76.062 20.482 75.607C20.468 75.152 20.391 74.711 20.258 74.27C19.621 74.473 18.872 74.683 18.018 74.9C17.164 75.117 16.394 75.292 15.722 75.432C15.183 75.432 14.644 75.397 14.112 75.334C13.573 75.264 13.034 75.166 12.502 75.033C12.768 73.556 13.055 72.086 13.356 70.623C13.657 69.16 13.909 67.8089 14.112 66.5629C15.155 67.0669 16.156 67.452 17.108 67.725C18.067 67.991 19.068 68.131 20.104 68.131C21.686 68.131 23.121 67.872 24.416 67.347C25.711 66.829 26.74 66.045 27.517 65.002C28.287 63.959 28.679 62.699 28.679 61.222C28.679 60.179 28.546 58.905 28.273 57.393C25.788 58.1 23.303 58.688 20.811 59.157L20.818 59.143Z" fill="#6EBE59"/>
<path d="M53.8022 66.171C53.4522 65.415 52.9062 64.778 52.1642 64.253C51.4222 63.735 50.4492 63.469 49.2382 63.469C47.3902 63.469 45.7172 64.407 44.2262 66.29C42.7282 68.173 41.3982 70.84 40.2222 74.305L39.7182 74.053C40.0892 72.877 40.4602 71.624 40.8242 70.301C41.1952 68.971 41.3772 67.774 41.3772 66.696C41.3772 65.758 41.1742 64.981 40.7752 64.379C40.3692 63.777 39.7322 63.469 38.8572 63.469C37.6812 63.469 36.3442 63.749 34.8532 64.302C33.3552 64.855 31.7382 65.52 29.9882 66.29L32.6062 70.322C32.2702 71.736 31.9202 73.346 31.5492 75.159C31.1782 76.972 30.8352 78.778 30.5132 80.577C30.1912 82.376 29.9322 84.007 29.7292 85.463C29.5262 86.919 29.4282 88.011 29.4282 88.711C29.4282 90.727 29.8622 92.274 30.7372 93.345C31.6122 94.423 33.0752 94.955 35.1192 94.955C36.8692 94.955 38.7802 94.129 40.8662 92.484C40.1592 91.511 39.8092 89.978 39.8092 87.899C39.8092 85.211 39.9842 83.027 40.3412 81.347C40.6912 79.667 41.1742 78.365 41.7762 77.441C42.3782 76.517 43.0502 75.887 43.7922 75.551C44.5342 75.215 45.2902 75.047 46.0602 75.047C48.0412 75.047 49.6372 74.718 50.8482 74.067C52.0592 73.416 52.9412 72.569 53.4942 71.547C54.0472 70.525 54.3272 69.454 54.3272 68.348C54.3272 67.641 54.1522 66.913 53.7952 66.157L53.8022 66.171Z" fill="#6EBE59"/>
<path d="M81.319 76.405C82.544 74.739 83.16 72.968 83.16 71.085C83.16 68.901 82.39 67.088 80.843 65.639C79.296 64.197 76.895 63.469 73.633 63.469C70.875 63.469 68.313 63.903 65.947 64.778C63.581 65.653 61.502 66.892 59.724 68.509C57.946 70.119 56.56 72.044 55.566 74.277C54.572 76.51 54.082 78.988 54.082 81.711C54.082 84.434 54.628 86.639 55.72 88.641C56.812 90.643 58.436 92.197 60.585 93.303C62.734 94.409 65.373 94.969 68.495 94.969C71.183 94.969 73.493 94.542 75.425 93.681C77.357 92.827 78.841 91.763 79.884 90.503C80.927 89.243 81.445 88.011 81.445 86.8C81.445 85.491 80.787 84.581 79.478 84.077C78.169 83.573 76.37 83.321 74.088 83.321C74.088 84.763 73.836 85.897 73.332 86.723C72.828 87.549 72.205 88.116 71.47 88.438C70.728 88.76 70.028 88.914 69.356 88.914C68.012 88.914 66.892 88.298 66.003 87.073C65.114 85.848 64.617 84.161 64.519 82.005C69.055 81.97 72.681 81.445 75.404 80.416C78.127 79.394 80.101 78.05 81.326 76.384L81.319 76.405ZM74.088 74.214C73.416 75.124 72.338 75.929 70.861 76.636C69.384 77.343 67.417 77.798 64.967 77.994C65.373 76.58 65.947 75.215 66.703 73.885C67.459 72.555 68.355 71.477 69.398 70.637C70.441 69.797 71.568 69.377 72.772 69.377C73.514 69.377 74.081 69.594 74.487 70.035C74.893 70.469 75.089 71.029 75.089 71.701C75.089 72.471 74.753 73.311 74.081 74.221L74.088 74.214Z" fill="#6EBE59"/>
<path d="M114.429 76.405C115.654 74.739 116.27 72.968 116.27 71.085C116.27 68.901 115.5 67.088 113.953 65.639C112.406 64.197 110.005 63.469 106.743 63.469C103.985 63.469 101.423 63.903 99.0574 64.778C96.6914 65.653 94.6124 66.892 92.8344 68.509C91.0564 70.119 89.6704 72.044 88.6764 74.277C87.6824 76.51 87.1924 78.988 87.1924 81.711C87.1924 84.434 87.7384 86.639 88.8304 88.641C89.9224 90.643 91.5464 92.197 93.6954 93.303C95.8444 94.409 98.4834 94.969 101.605 94.969C104.293 94.969 106.603 94.542 108.535 93.681C110.467 92.827 111.951 91.763 112.994 90.503C114.037 89.243 114.555 88.011 114.555 86.8C114.555 85.491 113.897 84.581 112.588 84.077C111.279 83.573 109.48 83.321 107.198 83.321C107.198 84.763 106.946 85.897 106.442 86.723C105.938 87.549 105.315 88.116 104.58 88.438C103.838 88.76 103.138 88.914 102.466 88.914C101.122 88.914 100.002 88.298 99.1134 87.073C98.2244 85.848 97.7274 84.161 97.6294 82.005C102.165 81.97 105.791 81.445 108.514 80.416C111.237 79.394 113.211 78.05 114.436 76.384L114.429 76.405ZM107.198 74.214C106.526 75.124 105.448 75.929 103.971 76.636C102.494 77.343 100.527 77.798 98.0774 77.994C98.4834 76.58 99.0574 75.215 99.8134 73.885C100.569 72.555 101.465 71.477 102.508 70.637C103.551 69.797 104.678 69.377 105.882 69.377C106.624 69.377 107.191 69.594 107.597 70.035C108.003 70.469 108.199 71.029 108.199 71.701C108.199 72.471 107.863 73.311 107.191 74.221L107.198 74.214Z" fill="#6EBE59"/>
<path d="M149.009 65.744C149.765 64.533 150.143 62.972 150.143 61.054C150.143 60.718 150.129 60.249 150.094 59.64C150.059 59.038 149.94 58.415 149.744 57.778C148.603 58.114 147.266 58.464 145.74 58.835C144.214 59.206 142.828 59.507 141.582 59.745C139.804 59.675 138.061 59.479 136.367 59.143C134.673 58.807 132.979 58.478 131.299 58.163C129.619 57.841 127.925 57.687 126.21 57.687C124.866 57.687 123.62 57.974 122.479 58.541C121.338 59.115 120.421 60.004 119.735 61.215C119.049 62.426 118.699 63.987 118.699 65.905C118.699 66.241 118.713 66.71 118.748 67.319C118.783 67.921 118.902 68.544 119.098 69.181C119.903 68.978 120.911 68.768 122.122 68.551C123.333 68.334 124.53 68.124 125.727 67.921C126.917 67.718 127.904 67.571 128.674 67.466C127.736 72.639 127.008 76.825 126.504 80.017C126 83.209 125.748 85.61 125.748 87.227C125.748 89.845 126.21 91.805 127.134 93.1C128.058 94.395 129.647 95.039 131.894 95.039C134.141 95.039 136.129 94.283 138.145 92.771C137.641 91.966 137.263 90.972 137.011 89.796C136.759 88.62 136.633 87.178 136.633 85.463C136.633 84.861 136.724 83.958 136.913 82.768C137.095 81.578 137.326 80.213 137.592 78.687C137.858 77.161 138.152 75.572 138.474 73.927C138.796 72.282 139.104 70.7 139.405 69.188C139.776 69.223 140.161 69.244 140.567 69.265C140.973 69.279 141.393 69.293 141.827 69.293C143.339 69.293 144.725 69.006 145.985 68.439C147.245 67.865 148.253 66.976 149.009 65.765V65.744Z" fill="#6EBE59"/>
<path d="M176.148 64.736C175.343 64.736 174.468 64.876 173.53 65.163C172.592 65.45 171.731 65.842 170.961 66.346C170.926 65.639 170.807 64.82 170.611 63.875C169.939 63.707 169.309 63.595 168.721 63.546C168.133 63.497 167.433 63.469 166.628 63.469C163.842 63.469 161.252 63.966 158.865 64.953C156.478 65.947 154.406 67.333 152.642 69.111C150.878 70.889 149.499 72.975 148.512 75.362C147.518 77.749 147.028 80.332 147.028 83.125C147.028 85.512 147.413 87.591 148.19 89.376C148.96 91.154 150.066 92.533 151.494 93.506C152.922 94.479 154.574 94.969 156.457 94.969C158.543 94.969 160.433 94.29 162.127 92.925C163.821 91.567 165.123 89.677 166.033 87.255L166.537 87.507C166.537 90.062 166.999 91.945 167.923 93.149C168.847 94.36 170.282 94.962 172.235 94.962C174.349 94.962 176.351 94.136 178.234 92.491C177.191 91.616 176.673 90.09 176.673 87.906C176.673 86.296 176.834 84.553 177.149 82.691C177.471 80.829 177.835 78.995 178.255 77.196C178.675 75.397 179.046 73.752 179.361 72.254C179.683 70.756 179.837 69.573 179.837 68.698C179.837 66.045 178.612 64.715 176.155 64.715L176.148 64.736ZM168.413 73.101C168.161 74.41 167.958 75.649 167.811 76.804C167.657 77.966 167.517 79.198 167.384 80.507C166.544 82.152 165.501 83.447 164.262 84.385C163.016 85.323 161.742 85.799 160.433 85.799C159.124 85.799 158.221 85.351 157.535 84.462C156.849 83.573 156.499 82.306 156.499 80.654C156.499 79.002 156.842 77.504 157.535 76.041C158.221 74.578 159.173 73.276 160.384 72.135C161.595 70.994 162.96 70.091 164.493 69.44C166.019 68.782 167.643 68.46 169.358 68.46C168.987 70.238 168.679 71.785 168.427 73.094L168.413 73.101Z" fill="#6EBE59"/>
<path d="M215.005 90.216C213.997 88.788 212.996 87.017 212.009 84.896C211.015 82.782 210.154 80.542 209.412 78.19C210.686 77.448 211.939 76.587 213.164 75.593C214.389 74.599 215.397 73.486 216.188 72.24C216.979 70.994 217.371 69.685 217.371 68.306C217.371 66.927 216.951 65.695 216.111 64.806C215.271 63.917 214.144 63.469 212.737 63.469C210.623 63.469 208.369 64.19 205.982 65.639C206.115 65.975 206.22 66.325 206.283 66.696C206.353 67.067 206.381 67.487 206.381 67.956C206.381 69.034 206.073 70.028 205.45 70.952C204.827 71.876 204.008 72.793 202.979 73.696C201.957 74.606 200.837 75.593 199.626 76.671L196.448 79.492C196.749 77.574 197.12 75.6 197.554 73.57C197.988 71.54 198.408 69.559 198.814 67.62C199.22 65.688 199.556 63.917 199.822 62.3C200.088 60.69 200.228 59.325 200.228 58.219C200.228 56.945 199.948 56.028 199.395 55.475C198.842 54.922 197.855 54.642 196.448 54.642C194.838 54.642 193.221 54.992 191.611 55.699C190.001 56.406 188.3 57.281 186.522 58.317L189.343 62.349C189.077 63.826 188.769 65.506 188.433 67.389C188.097 69.272 187.747 71.211 187.376 73.213C187.005 75.215 186.669 77.133 186.368 78.981C186.067 80.829 185.822 82.474 185.64 83.923C185.458 85.365 185.36 86.457 185.36 87.199C185.36 89.817 185.794 91.77 186.669 93.044C187.544 94.318 189.007 94.962 191.051 94.962C192.864 94.962 194.95 94.136 197.302 92.491C196.763 91.889 196.371 91.07 196.119 90.048C195.867 89.026 195.741 87.857 195.741 86.548V85.715C195.741 85.428 195.755 85.155 195.79 84.882L200.984 82.313L202.244 85.89C203.385 89.117 204.666 91.434 206.073 92.848C207.48 94.262 209.23 94.962 211.316 94.962C212.394 94.962 213.535 94.794 214.746 94.458C215.957 94.122 216.895 93.604 217.567 92.897C216.86 92.526 216.006 91.63 214.998 90.202L215.005 90.216Z" fill="#6EBE59"/>
<path d="M245.245 84.0909C243.936 83.5869 242.137 83.3349 239.855 83.3349C239.855 84.7769 239.603 85.9109 239.099 86.7369C238.595 87.5629 237.972 88.1299 237.237 88.4519C236.495 88.7739 235.795 88.9279 235.123 88.9279C233.779 88.9279 232.659 88.3119 231.77 87.0869C230.881 85.8619 230.384 84.1749 230.286 82.0189C234.822 81.9839 238.448 81.4589 241.171 80.4299C243.894 79.4079 245.868 78.0639 247.093 76.3979C248.318 74.7319 248.934 72.9609 248.934 71.0779C248.934 68.8939 248.164 67.0809 246.617 65.6319C245.07 64.1899 242.669 63.4619 239.407 63.4619C236.649 63.4619 234.087 63.8959 231.721 64.7709C229.355 65.6459 227.276 66.8849 225.498 68.5019C223.72 70.1119 222.334 72.0369 221.34 74.2699C220.346 76.5029 219.856 78.9809 219.856 81.7039C219.856 84.4269 220.402 86.6319 221.494 88.6339C222.586 90.6359 224.21 92.1899 226.359 93.2959C228.508 94.4019 231.147 94.9619 234.269 94.9619C236.957 94.9619 239.267 94.5349 241.199 93.6739C243.131 92.8199 244.615 91.7559 245.658 90.4959C246.701 89.2359 247.219 88.0039 247.219 86.7929C247.219 85.4839 246.561 84.5739 245.252 84.0699L245.245 84.0909ZM232.47 73.8849C233.226 72.5549 234.122 71.4769 235.165 70.6369C236.208 69.7969 237.335 69.3769 238.539 69.3769C239.281 69.3769 239.848 69.5939 240.254 70.0349C240.66 70.4689 240.856 71.0289 240.856 71.7009C240.856 72.4709 240.52 73.3109 239.848 74.2209C239.176 75.1309 238.098 75.9359 236.621 76.6429C235.144 77.3499 233.177 77.8049 230.727 78.0009C231.133 76.5869 231.707 75.2219 232.463 73.8919L232.47 73.8849Z" fill="#6EBE59"/>
<path d="M126.742 47.6069C128.254 46.9839 128.478 45.2269 128.24 43.7289C128.149 43.1409 127.89 42.5949 127.54 42.1119C124.971 38.4999 123.627 33.0819 124.523 29.4209C125.818 24.6679 130.438 23.0789 134.764 24.7239C134.771 24.7239 134.778 24.7239 134.792 24.7239C135.156 24.6189 135.17 24.1569 135.352 23.8069C136.143 21.8889 136.997 20.0059 138.117 18.2419C138.565 17.4789 139.384 17.9619 139.986 18.2559C140.308 18.4729 141.316 18.6899 141.309 19.1659C140.399 20.2019 139.118 20.9719 138.278 22.1059C137.613 22.9529 136.885 23.8419 136.479 24.7519C136.514 24.8499 136.836 24.7029 137.088 24.6119C140.175 23.3659 144.053 24.0589 145.831 27.0479C147.938 30.4569 147.35 35.9029 144.942 40.8939C144.711 41.5519 144.298 42.0909 144.025 42.6509C143.29 43.9319 142.737 45.1009 144.487 45.8639C146.475 46.7809 148.211 45.0239 149.254 43.4979C151.921 40.0329 152.999 36.2669 153.384 31.4299C153.58 28.9799 153.503 26.5929 153.293 24.2269C153.02 21.1959 152.488 18.1929 151.725 15.2459C150.563 10.7309 148.82 6.25094 144.823 3.66094C139.867 0.370943 130.725 -1.24606 124.012 1.12694C121.569 1.98794 119.798 2.96094 117.628 4.26994C116.151 4.98394 114.59 5.64194 113.001 6.13194C110.649 6.62194 108.29 7.11894 105.952 7.62294C103.194 7.93094 100.394 8.16194 97.6781 8.88994C96.0471 9.25394 94.4091 9.51994 92.7781 9.88394C92.3231 10.0029 91.8821 10.2899 91.8261 10.7799C91.6791 14.5389 97.3561 13.4959 99.7501 13.1879C102.431 13.1179 105.14 13.4679 107.751 13.3839C109.081 13.4329 107.779 14.2589 107.331 14.6229C104.622 16.6039 102.067 18.8019 99.8621 21.3639C96.8871 24.1429 94.4441 27.3839 91.7421 30.4009C90.8951 31.2619 89.8941 32.0389 89.0261 32.8789C88.5011 33.5579 89.0541 34.2369 89.5231 34.8459C91.9101 37.6879 97.5171 32.5429 99.3511 30.7019C100.681 29.1689 102.48 28.0139 104.069 26.7259C104.748 26.2499 105.434 25.4449 106.148 25.1159C106.274 25.2279 106.064 25.6409 106.036 25.8089C105.385 27.4679 104.734 29.3789 104.503 31.2129C103.943 34.6569 103.033 38.0169 102.914 41.4889C102.781 42.9379 102.326 44.3099 102.011 45.7309C101.388 48.2719 104.006 48.2859 105.518 47.2149C108.325 44.5549 108.423 40.2849 110.152 36.9739C110.81 35.4129 111.265 33.7749 111.797 32.1649C112.469 30.0159 114.443 28.6789 115.829 26.9499C116.557 26.2149 117.201 25.3399 117.985 24.7309C118.083 24.6749 118.167 24.6679 118.223 24.7029C118.44 28.3989 116.305 32.5429 118.433 36.0149C119.553 37.8839 124.789 48.1249 126.714 47.6139L126.742 47.6069ZM127.379 15.2249C127.645 14.8889 128.219 15.0289 128.555 15.0009H128.632C130.732 15.3299 132.713 16.5059 133.231 18.6969C133.406 19.4179 133.546 20.1459 133.476 20.8949C133.427 21.0699 133.315 21.2029 133.161 21.2869C131.537 21.6089 129.71 20.9579 128.576 19.7399C127.561 18.5779 126.749 16.6389 127.372 15.2319L127.379 15.2249Z" fill="#6EBE59"/>
</g>
<defs>
<clipPath id="clip0_360_2375">
<rect width="248.927" height="95.025" fill="white"/>
</clipPath>
</defs>
</svg>
